<?xml version="1.0" standalone="no"?>
<!DOCTYPE svg PUBLIC "-//W3C//DTD SVG 20010904//EN"
 "http://www.w3.org/TR/2001/REC-SVG-20010904/DTD/svg10.dtd">
<svg version="1.0" xmlns="http://www.w3.org/2000/svg"
 width="512.000000pt" height="512.000000pt" viewBox="0 0 512.000000 512.000000"
 preserveAspectRatio="xMidYMid meet">
<metadata>
Created by potrace 1.14, written by Peter Selinger 2001-2017
</metadata>
<g transform="translate(0.000000,512.000000) scale(0.100000,-0.100000)"
fill="#000000" stroke="none">
<path d="M769 4235 c-299 -300 -546 -548 -549 -551 -3 -3 -5 -152 -6 -332 0
-321 0 -326 21 -344 27 -23 26 -77 -2 -107 -18 -19 -19 -37 -19 -231 1 -201 2
-210 22 -224 27 -19 25 -91 -3 -111 -17 -13 -18 -52 -19 -877 0 -778 1 -866
16 -893 19 -35 72 -65 115 -65 28 0 30 -3 32 -40 1 -51 22 -82 66 -103 31 -15
212 -17 2095 -16 2303 0 2131 -6 2196 70 20 24 38 59 43 83 5 22 9 259 8 525
l0 485 30 18 c37 21 74 75 84 120 4 18 7 130 6 248 -1 200 -3 218 -23 257 -24
46 -59 77 -106 94 -23 8 -37 22 -45 45 -17 48 -48 82 -94 106 -39 20 -58 21
-247 22 l-205 1 -13 60 c-18 82 -63 141 -130 171 -21 10 -39 27 -48 50 -20 48
-79 100 -132 119 -30 10 -82 15 -151 15 l-106 0 0 843 c-1 905 0 888 -52 922
-13 9 -43 19 -65 23 -38 7 -42 10 -44 38 -3 48 -29 89 -66 107 -30 14 -137 16
-1049 16 l-1015 0 -545 -544z"/>
</g>
</svg>
